<svg xmlns="http://www.w3.org/2000/svg" width="147" height="147" fill="none" viewBox="0 0 147 147">
  <g clip-path="url(#a)">
    <rect width="147" height="147" fill="#EE8F0E" rx="29"/>
    <path stroke="#fff" stroke-linecap="round" stroke-linejoin="round" stroke-width="10" d="m86.105 103.484-53.4-14.565m72.17-61.81A10.603 10.603 0 0 1 112.38 24a10.61 10.61 0 0 1 9.805 6.552 10.602 10.602 0 0 1 0 8.123 10.614 10.614 0 0 1-2.3 3.444l-20.09 20.095a2.5 2.5 0 0 0 0 3.535l4.72 4.72a12.05 12.05 0 0 1 0 17.04l-4.72 4.72a2.5 2.5 0 0 1-3.535 0l-41.495-41.49a2.5 2.5 0 0 1 0-3.535l4.72-4.72a12.05 12.05 0 0 1 17.04 0l4.72 4.72a2.5 2.5 0 0 0 3.535 0l20.095-20.095Zm-46.88 26.89c-9.02 13.55-19.85 17.3-32.915 19.74a2.534 2.534 0 0 0-1.51 4.095l36.6 44.415a5.004 5.004 0 0 0 5.925 1.02c10.575-7.245 26.9-25.31 26.9-34.27"/>
  </g>
  <defs>
    <clipPath id="a">
      <path fill="#fff" d="M0 0h147v147H0z"/>
    </clipPath>
  </defs>
</svg>
